<svg id="Слой_1" data-name="Слой 1" xmlns="http://www.w3.org/2000/svg" viewBox="0 0 92 80"><defs><style>.cls-1{fill:#fff;}</style></defs><title>heart</title><rect class="cls-1" x="24" y="56" width="4" height="4"/><rect class="cls-1" x="28" y="60" width="4" height="4"/><rect class="cls-1" x="32" y="64" width="4" height="4"/><rect class="cls-1" x="36" y="68" width="4" height="4"/><rect class="cls-1" x="40" y="72" width="4" height="4"/><rect class="cls-1" x="44" y="76" width="4" height="4"/><rect class="cls-1" x="48" y="72" width="4" height="4"/><rect class="cls-1" x="52" y="68" width="4" height="4"/><rect class="cls-1" x="56" y="64" width="4" height="4"/><rect class="cls-1" x="60" y="60" width="4" height="4"/><rect class="cls-1" x="64" y="56" width="4" height="4"/><rect class="cls-1" x="68" y="52" width="4" height="4"/><rect class="cls-1" x="72" y="48" width="4" height="4"/><rect class="cls-1" x="76" y="44" width="4" height="4"/><rect class="cls-1" x="80" y="40" width="4" height="4"/><rect class="cls-1" x="84" y="36" width="4" height="4"/><rect class="cls-1" x="20" y="52" width="4" height="4"/><rect class="cls-1" x="16" y="48" width="4" height="4"/><rect class="cls-1" x="12" y="44" width="4" height="4"/><rect class="cls-1" x="4" y="36" width="4" height="4"/><rect class="cls-1" x="8" y="40" width="4" height="4"/><rect class="cls-1" x="88" y="32" width="4" height="4"/><rect class="cls-1" x="88" y="28" width="4" height="4"/><rect class="cls-1" x="88" y="24" width="4" height="4"/><rect class="cls-1" x="88" y="20" width="4" height="4"/><rect class="cls-1" x="88" y="16" width="4" height="4"/><rect class="cls-1" x="88" y="12" width="4" height="4"/><rect class="cls-1" x="84" y="8" width="4" height="4"/><rect class="cls-1" x="80" y="4" width="4" height="4"/><rect class="cls-1" x="76" width="4" height="4"/><rect class="cls-1" x="72" width="4" height="4"/><rect class="cls-1" x="68" width="4" height="4"/><rect class="cls-1" x="64" width="4" height="4"/><rect class="cls-1" x="60" width="4" height="4"/><rect class="cls-1" x="56" y="4" width="4" height="4"/><rect class="cls-1" x="52" y="8" width="4" height="4"/><rect class="cls-1" x="48" y="12" width="4" height="4"/><rect class="cls-1" x="44" y="16" width="4" height="4"/><rect class="cls-1" x="40" y="12" width="4" height="4"/><rect class="cls-1" x="36" y="8" width="4" height="4"/><rect class="cls-1" x="32" y="4" width="4" height="4"/><rect class="cls-1" x="28" width="4" height="4"/><rect class="cls-1" x="24" width="4" height="4"/><rect class="cls-1" x="20" width="4" height="4"/><rect class="cls-1" x="16" width="4" height="4"/><rect class="cls-1" x="12" width="4" height="4"/><rect class="cls-1" x="8" y="4" width="4" height="4"/><rect class="cls-1" x="4" y="8" width="4" height="4"/><rect class="cls-1" y="32" width="4" height="4"/><rect class="cls-1" y="28" width="4" height="4"/><rect class="cls-1" y="24" width="4" height="4"/><rect class="cls-1" y="20" width="4" height="4"/><rect class="cls-1" y="16" width="4" height="4"/><rect class="cls-1" y="12" width="4" height="4"/></svg>