<svg id="Слой_1" data-name="Слой 1" xmlns="http://www.w3.org/2000/svg" viewBox="0 0 92 80"><defs><style>.cls-1{fill:#fff;}</style></defs><title>FullHeart</title><polygon class="cls-1" points="92 12 92 36 88 36 88 40 84 40 84 44 80 44 80 48 76 48 76 52 72 52 72 56 68 56 68 60 64 60 64 64 60 64 60 68 56 68 56 72 52 72 52 76 48 76 48 80 44 80 44 76 40 76 40 72 36 72 36 68 32 68 32 64 28 64 28 60 24 60 24 56 20 56 20 52 16 52 16 48 12 48 12 44 8 44 8 40 4 40 4 36 0 36 0 12 4 12 4 8 8 8 8 4 12 4 12 0 32 0 32 4 36 4 36 8 40 8 40 12 44 12 44 16 48 16 48 12 52 12 52 8 56 8 56 4 60 4 60 0 80 0 80 4 84 4 84 8 88 8 88 12 92 12"/></svg>